<?xml version="1.0" encoding="utf-8"?>
<!-- Generator: Adobe Illustrator 27.0.0, SVG Export Plug-In . SVG Version: 6.00 Build 0)  -->
<svg version="1.1" xmlns="http://www.w3.org/2000/svg" xmlns:xlink="http://www.w3.org/1999/xlink" x="0px" y="0px"
	 viewBox="0 0 90 90" style="enable-background:new 0 0 90 90;" xml:space="preserve">
<style type="text/css">
	.st0{fill:#111010;}
	.st1{display:none;}
	.st2{display:inline;}
	.st3{fill:#083D8C;}
	.st4{fill:#E7730C;}
</style>
<g id="Layer_1">
	<g>
		<g>
			<path class="st0" d="M42.16,85.46l-0.08-32.69L28.25,66.6L6.91,45.27L47.64,4.54l0.09,34.56l14.96-14.96l20.4,20.4L42.16,85.46z
				 M47.75,47.11l0.06,24.68l27.25-27.25L62.68,32.17L47.75,47.11z M14.94,45.27l13.31,13.31l13.81-13.81L42,18.21L14.94,45.27z"/>
		</g>
	</g>
</g>
<g id="Layer_1_copy" class="st1">
	<g class="st2">
		<g>
			<path class="st3" d="M42.16,85.46l-0.08-32.69L28.25,66.6L6.91,45.27L47.64,4.54l0.09,34.56l14.96-14.96l20.4,20.4L42.16,85.46z
				 M47.75,47.11l0.06,24.68l27.25-27.25L62.68,32.17L47.75,47.11z M14.94,45.27l13.31,13.31l13.81-13.81L42,18.21L14.94,45.27z"/>
		</g>
	</g>
</g>
<g id="Layer_1_copy_2" class="st1">
	<g class="st2">
		<g>
			<path class="st4" d="M42.16,85.46l-0.08-32.69L28.25,66.6L6.91,45.27L47.64,4.54l0.09,34.56l14.96-14.96l20.4,20.4L42.16,85.46z
				 M47.75,47.11l0.06,24.68l27.25-27.25L62.68,32.17L47.75,47.11z M14.94,45.27l13.31,13.31l13.81-13.81L42,18.21L14.94,45.27z"/>
		</g>
	</g>
</g>
</svg>
