<svg width="206" height="48" viewBox="0 0 206 48" fill="none" xmlns="http://www.w3.org/2000/svg">
<path d="M83 36H86.75M83 39H86.75M83 42H86.75M89.75 42.75H92C93.2426 42.75 94.25 41.7426 94.25 40.5V30.1082C94.25 28.9732 93.405 28.0102 92.2739 27.9163C91.9006 27.8853 91.5261 27.8586 91.1505 27.8362M85.3495 27.8362C85.2848 28.046 85.25 28.2689 85.25 28.5C85.25 28.9142 85.5858 29.25 86 29.25H90.5C90.9142 29.25 91.25 28.9142 91.25 28.5C91.25 28.2689 91.2152 28.046 91.1505 27.8362M85.3495 27.8362C85.6328 26.9176 86.4884 26.25 87.5 26.25H89C90.0116 26.25 90.8672 26.9176 91.1505 27.8362M85.3495 27.8362C84.9739 27.8586 84.5994 27.8853 84.2261 27.9163C83.095 28.0102 82.25 28.9732 82.25 30.1082V32.25M82.25 32.25H78.875C78.2537 32.25 77.75 32.7537 77.75 33.375V44.625C77.75 45.2463 78.2537 45.75 78.875 45.75H88.625C89.2463 45.75 89.75 45.2463 89.75 44.625V33.375C89.75 32.7537 89.2463 32.25 88.625 32.25H82.25ZM80.75 36H80.7575V36.0075H80.75V36ZM80.75 39H80.7575V39.0075H80.75V39ZM80.75 42H80.7575V42.0075H80.75V42Z" stroke="#111010" stroke-width="1.5" stroke-linecap="round" stroke-linejoin="round"/>
<path d="M15.182 31.182C13.4246 32.9393 10.5754 32.9393 8.81802 31.182M21 28C21 32.9706 16.9706 37 12 37C7.02944 37 3 32.9706 3 28C3 23.0294 7.02944 19 12 19C16.9706 19 21 23.0294 21 28ZM9.75 25.75C9.75 26.1642 9.58211 26.5 9.375 26.5C9.16789 26.5 9 26.1642 9 25.75C9 25.3358 9.16789 25 9.375 25C9.58211 25 9.75 25.3358 9.75 25.75ZM9.375 25.75H9.3825V25.765H9.375V25.75ZM15 25.75C15 26.1642 14.8321 26.5 14.625 26.5C14.4179 26.5 14.25 26.1642 14.25 25.75C14.25 25.3358 14.4179 25 14.625 25C14.8321 25 15 25.3358 15 25.75ZM14.625 25.75H14.6325V25.765H14.625V25.75Z" stroke="#2B8601" stroke-width="1.5" stroke-linecap="round" stroke-linejoin="round"/>
<path d="M22.25 12.7593C22.25 14.3604 23.3734 15.754 24.9575 15.987C26.0436 16.1467 27.1415 16.27 28.25 16.3556V21L32.326 16.924C32.6017 16.6483 32.9738 16.4919 33.3635 16.481C35.2869 16.4274 37.1821 16.2606 39.0425 15.9871C40.6266 15.7542 41.75 14.3606 41.75 12.7595V6.74056C41.75 5.13946 40.6266 3.74583 39.0425 3.51293C36.744 3.17501 34.3926 3 32.0003 3C29.6078 3 27.2561 3.17504 24.9575 3.51302C23.3734 3.74593 22.25 5.13956 22.25 6.74064V12.7593Z" stroke="#2B8601" stroke-width="1.5" stroke-linecap="round" stroke-linejoin="round"/>
<path d="M36 6L30.5 13L28 9.81818" stroke="#2B8601" stroke-linecap="round" stroke-linejoin="round"/>
<path d="M175.5 18.75H166.5M175.5 18.75C177.157 18.75 178.5 20.0931 178.5 21.75H163.5C163.5 20.0931 164.843 18.75 166.5 18.75M175.5 18.75V15.375C175.5 14.7537 174.997 14.25 174.375 14.25H173.504M166.5 18.75V15.375C166.5 14.7537 167.004 14.25 167.625 14.25H168.497M173.504 14.25H168.497M173.504 14.25C172.956 13.3038 172.61 12.227 172.522 11.0777M168.497 14.25C169.044 13.3038 169.391 12.227 169.478 11.0777M164.25 4.23636C163.268 4.3792 162.296 4.55275 161.334 4.75601C161.785 7.42349 163.995 9.49282 166.73 9.72775M164.25 4.23636V4.5C164.25 6.60778 165.216 8.48992 166.73 9.72775M164.25 4.23636V2.72089C166.456 2.41051 168.709 2.25 171 2.25C173.291 2.25 175.545 2.41051 177.75 2.72089V4.23636M166.73 9.72775C167.517 10.3719 168.453 10.8415 169.478 11.0777M177.75 4.23636V4.5C177.75 6.60778 176.784 8.48992 175.271 9.72775M177.75 4.23636C178.733 4.3792 179.705 4.55275 180.666 4.75601C180.216 7.42349 178.005 9.49282 175.271 9.72775M175.271 9.72775C174.483 10.3719 173.547 10.8415 172.522 11.0777M172.522 11.0777C172.033 11.1904 171.524 11.25 171 11.25C170.477 11.25 169.967 11.1904 169.478 11.0777" stroke="#CC9300" stroke-width="1.5" stroke-linecap="round" stroke-linejoin="round"/>
<path d="M59.25 19.75L65.5 26M65.5 26L59.25 32.25M65.5 26H50.5" stroke="#111010" stroke-width="1.5" stroke-linecap="round" stroke-linejoin="round"/>
<path d="M77.25 21H96.75M78.75 3V21M89.25 3V21M95.25 7.5V21M81.75 6.75H82.5M81.75 9.75H82.5M81.75 12.75H82.5M85.5 6.75H86.25M85.5 9.75H86.25M85.5 12.75H86.25M81.75 21V17.625C81.75 17.0037 82.2537 16.5 82.875 16.5H85.125C85.7463 16.5 86.25 17.0037 86.25 17.625V21M78 3H90M89.25 7.5H96M92.25 11.25H92.2575V11.2575H92.25V11.25ZM92.25 14.25H92.2575V14.2575H92.25V14.25ZM92.25 17.25H92.2575V17.2575H92.25V17.25Z" stroke="#111010" stroke-width="1.5" stroke-linecap="round" stroke-linejoin="round"/>
<path d="M121.25 14.1499V18.4C121.25 19.4944 120.463 20.4359 119.378 20.58C117.291 20.857 115.162 21 113 21C110.838 21 108.709 20.857 106.622 20.58C105.537 20.4359 104.75 19.4944 104.75 18.4V14.1499M121.25 14.1499C121.722 13.7476 122 13.1389 122 12.4889V8.70569C122 7.62475 121.232 6.69082 120.163 6.53086C119.038 6.36247 117.9 6.23315 116.75 6.14432M121.25 14.1499C121.056 14.315 120.83 14.4453 120.577 14.5294C118.195 15.3212 115.648 15.75 113 15.75C110.352 15.75 107.805 15.3212 105.423 14.5294C105.17 14.4452 104.944 14.3149 104.75 14.1499M104.75 14.1499C104.278 13.7476 104 13.1389 104 12.4889V8.70569C104 7.62475 104.768 6.69082 105.837 6.53086C106.962 6.36247 108.1 6.23315 109.25 6.14432M116.75 6.14432V5.25C116.75 4.00736 115.743 3 114.5 3H111.5C110.257 3 109.25 4.00736 109.25 5.25V6.14432M116.75 6.14432C115.513 6.0487 114.262 6 113 6C111.738 6 110.487 6.0487 109.25 6.14432M113 12.75H113.007V12.7575H113V12.75Z" stroke="#111010" stroke-width="1.5" stroke-linecap="round" stroke-linejoin="round"/>
<path d="M114.5 44.9999V37.4999C114.5 37.0856 114.836 36.7499 115.25 36.7499H118.25C118.664 36.7499 119 37.0856 119 37.4999V44.9999M114.5 44.9999H103.361M114.5 44.9999H119M119 44.9999H122.639M121.25 44.9999V33.3486M104.75 44.9999V33.3489M104.75 33.3489C105.897 34.012 107.39 33.8528 108.371 32.8713C108.416 32.8266 108.459 32.781 108.5 32.7343C109.05 33.3571 109.854 33.7499 110.75 33.7499C111.646 33.7499 112.45 33.357 113 32.7342C113.55 33.357 114.354 33.7499 115.25 33.7499C116.146 33.7499 116.95 33.3571 117.5 32.7344C117.541 32.781 117.584 32.8266 117.628 32.8712C118.61 33.8528 120.103 34.012 121.25 33.3486M104.75 33.3489C104.528 33.2205 104.319 33.0613 104.129 32.8713C102.957 31.6997 102.957 29.8002 104.129 28.6286L105.318 27.4393C105.599 27.158 105.981 27 106.379 27H119.621C120.019 27 120.401 27.158 120.682 27.4393L121.871 28.6285C123.043 29.8001 123.043 31.6996 121.871 32.8712C121.681 33.0611 121.472 33.2203 121.25 33.3486M107.75 41.9999H111.5C111.914 41.9999 112.25 41.6641 112.25 41.2499V37.4999C112.25 37.0856 111.914 36.7499 111.5 36.7499H107.75C107.336 36.7499 107 37.0856 107 37.4999V41.2499C107 41.6641 107.336 41.9999 107.75 41.9999Z" stroke="#111010" stroke-width="1.5" stroke-linecap="round" stroke-linejoin="round"/>
<path d="M186.182 40.3179C185.308 39.4432 184.162 39.0038 183.016 38.9999C181.859 38.996 180.701 39.4353 179.818 40.3179M192 36C192 40.9706 187.971 45 183 45C178.029 45 174 40.9706 174 36C174 31.0294 178.029 27 183 27C187.971 27 192 31.0294 192 36ZM180.75 33.75C180.75 34.1642 180.582 34.5 180.375 34.5C180.168 34.5 180 34.1642 180 33.75C180 33.3358 180.168 33 180.375 33C180.582 33 180.75 33.3358 180.75 33.75ZM180.375 33.75H180.383V33.765H180.375V33.75ZM186 33.75C186 34.1642 185.832 34.5 185.625 34.5C185.418 34.5 185.25 34.1642 185.25 33.75C185.25 33.3358 185.418 33 185.625 33C185.832 33 186 33.3358 186 33.75ZM185.625 33.75H185.633V33.765H185.625V33.75Z" stroke="#111010" stroke-width="1.5" stroke-linecap="round" stroke-linejoin="round"/>
<path d="M198.5 10.5V6.75C198.5 4.26472 196.485 2.25 194 2.25C191.515 2.25 189.5 4.26472 189.5 6.75V10.5M188.75 21.75H199.25C200.493 21.75 201.5 20.7426 201.5 19.5V12.75C201.5 11.5074 200.493 10.5 199.25 10.5H188.75C187.507 10.5 186.5 11.5074 186.5 12.75V19.5C186.5 20.7426 187.507 21.75 188.75 21.75Z" stroke="#DE3500" stroke-width="1.5" stroke-linecap="round" stroke-linejoin="round"/>
<path d="M143.25 19.75L149.5 26M149.5 26L143.25 32.25M149.5 26H134.5" stroke="#111010" stroke-width="1.5" stroke-linecap="round" stroke-linejoin="round"/>
</svg>
