<svg width="211" height="51" viewBox="0 0 211 51" fill="none" xmlns="http://www.w3.org/2000/svg">
<path d="M15.182 32.182C13.4246 33.9393 10.5754 33.9393 8.81802 32.182M21 29C21 33.9706 16.9706 38 12 38C7.02944 38 3 33.9706 3 29C3 24.0294 7.02944 20 12 20C16.9706 20 21 24.0294 21 29ZM9.75 26.75C9.75 27.1642 9.58211 27.5 9.375 27.5C9.16789 27.5 9 27.1642 9 26.75C9 26.3358 9.16789 26 9.375 26C9.58211 26 9.75 26.3358 9.75 26.75ZM9.375 26.75H9.3825V26.765H9.375V26.75ZM15 26.75C15 27.1642 14.8321 27.5 14.625 27.5C14.4179 27.5 14.25 27.1642 14.25 26.75C14.25 26.3358 14.4179 26 14.625 26C14.8321 26 15 26.3358 15 26.75ZM14.625 26.75H14.6325V26.765H14.625V26.75Z" stroke="#2B8601" stroke-width="1.5" stroke-linecap="round" stroke-linejoin="round"/>
<path d="M22.25 13.7593C22.25 15.3604 23.3734 16.754 24.9575 16.987C26.0436 17.1467 27.1415 17.27 28.25 17.3556V22L32.326 17.924C32.6017 17.6483 32.9738 17.4919 33.3635 17.481C35.2869 17.4274 37.1821 17.2606 39.0425 16.9871C40.6266 16.7542 41.75 15.3606 41.75 13.7595V7.74056C41.75 6.13946 40.6266 4.74583 39.0425 4.51293C36.744 4.17501 34.3926 4 32.0003 4C29.6078 4 27.2561 4.17504 24.9575 4.51302C23.3734 4.74593 22.25 6.13956 22.25 7.74064V13.7593Z" stroke="#2B8601" stroke-width="1.5" stroke-linecap="round" stroke-linejoin="round"/>
<path d="M36 7L30.5 14L28 10.8182" stroke="#2B8601" stroke-linecap="round" stroke-linejoin="round"/>
<path d="M60.25 20.75L66.5 27M66.5 27L60.25 33.25M66.5 27H51.5" stroke="#111010" stroke-width="1.5" stroke-linecap="round" stroke-linejoin="round"/>
<path d="M92.5003 19.75H83.5003M92.5003 19.75C94.1571 19.75 95.5003 21.0931 95.5003 22.75H80.5003C80.5003 21.0931 81.8434 19.75 83.5003 19.75M92.5003 19.75V16.375C92.5003 15.7537 91.9966 15.25 91.3753 15.25H90.5036M83.5003 19.75V16.375C83.5003 15.7537 84.0039 15.25 84.6253 15.25H85.4969M90.5036 15.25H85.4969M90.5036 15.25C89.9563 14.3038 89.6097 13.227 89.5222 12.0777M85.4969 15.25C86.0442 14.3038 86.3908 13.227 86.4783 12.0777M81.2503 5.23636C80.268 5.3792 79.2956 5.55275 78.3342 5.75601C78.7845 8.42349 80.9952 10.4928 83.7299 10.7277M81.2503 5.23636V5.5C81.2503 7.60778 82.2164 9.48992 83.7299 10.7277M81.2503 5.23636V3.72089C83.4557 3.41051 85.7092 3.25 88.0003 3.25C90.2913 3.25 92.5448 3.41051 94.7503 3.72089V5.23636M83.7299 10.7277C84.5175 11.3719 85.4533 11.8415 86.4783 12.0777M94.7503 5.23636V5.5C94.7503 7.60778 93.7842 9.48992 92.2706 10.7277M94.7503 5.23636C95.7326 5.3792 96.7049 5.55275 97.6663 5.75601C97.216 8.42349 95.0053 10.4928 92.2706 10.7277M92.2706 10.7277C91.483 11.3719 90.5472 11.8415 89.5222 12.0777M89.5222 12.0777C89.0331 12.1904 88.5236 12.25 88.0003 12.25C87.4769 12.25 86.9675 12.1904 86.4783 12.0777" stroke="#CC9300" stroke-width="1.5" stroke-linecap="round" stroke-linejoin="round"/>
<path d="M115.5 10.5V6.75C115.5 4.26472 117.515 2.25 120 2.25C122.485 2.25 124.5 4.26472 124.5 6.75V10.5M105.75 21.75H116.25C117.493 21.75 118.5 20.7426 118.5 19.5V12.75C118.5 11.5074 117.493 10.5 116.25 10.5H105.75C104.507 10.5 103.5 11.5074 103.5 12.75V19.5C103.5 20.7426 104.507 21.75 105.75 21.75Z" stroke="#2B8601" stroke-width="1.5" stroke-linecap="round" stroke-linejoin="round"/>
<path d="M91.182 42.182C89.4246 43.9393 86.5754 43.9393 84.818 42.182M97 39C97 43.9706 92.9706 48 88 48C83.0294 48 79 43.9706 79 39C79 34.0294 83.0294 30 88 30C92.9706 30 97 34.0294 97 39ZM85.75 36.75C85.75 37.1642 85.5821 37.5 85.375 37.5C85.1679 37.5 85 37.1642 85 36.75C85 36.3358 85.1679 36 85.375 36C85.5821 36 85.75 36.3358 85.75 36.75ZM85.375 36.75H85.3825V36.765H85.375V36.75ZM91 36.75C91 37.1642 90.8321 37.5 90.625 37.5C90.4179 37.5 90.25 37.1642 90.25 36.75C90.25 36.3358 90.4179 36 90.625 36C90.8321 36 91 36.3358 91 36.75ZM90.625 36.75H90.6325V36.765H90.625V36.75Z" stroke="#2B8601" stroke-width="1.5" stroke-linecap="round" stroke-linejoin="round"/>
<path d="M117.59 40.3696C117.695 40.8128 117.75 41.275 117.75 41.75C117.75 45.0637 115.064 47.75 111.75 47.75V42.9503M117.59 40.3696C121.324 37.6411 123.75 33.2287 123.75 28.25C118.771 28.2502 114.359 30.6759 111.631 34.4098M117.59 40.3696C115.882 41.6181 113.899 42.514 111.75 42.9503M111.631 34.4098C111.188 34.3053 110.725 34.25 110.25 34.25C106.936 34.25 104.25 36.9363 104.25 40.25H109.051M111.631 34.4098C110.383 36.1183 109.487 38.1007 109.051 40.25M111.75 42.9503C111.647 42.9713 111.543 42.9912 111.439 43.0101C110.532 42.291 109.71 41.4692 108.991 40.5623C109.01 40.4578 109.03 40.3537 109.051 40.25M106.812 42.6408C105.712 43.4612 105 44.7724 105 46.25C105 46.4869 105.018 46.7195 105.054 46.9464C105.281 46.9817 105.513 47 105.75 47C107.228 47 108.539 46.2879 109.359 45.1881M118.5 35C118.5 35.8284 117.828 36.5 117 36.5C116.172 36.5 115.5 35.8284 115.5 35C115.5 34.1716 116.172 33.5 117 33.5C117.828 33.5 118.5 34.1716 118.5 35Z" stroke="#DE3500" stroke-width="1.5" stroke-linecap="round" stroke-linejoin="round"/>
<path d="M144.25 20.75L150.5 27M150.5 27L144.25 33.25M150.5 27H135.5" stroke="#111010" stroke-width="1.5" stroke-linecap="round" stroke-linejoin="round"/>
<path d="M169 37H172.75M169 40H172.75M169 43H172.75M175.75 43.75H178C179.243 43.75 180.25 42.7426 180.25 41.5V31.1082C180.25 29.9732 179.405 29.0102 178.274 28.9163C177.901 28.8853 177.526 28.8586 177.15 28.8362M171.35 28.8362C171.285 29.046 171.25 29.2689 171.25 29.5C171.25 29.9142 171.586 30.25 172 30.25H176.5C176.914 30.25 177.25 29.9142 177.25 29.5C177.25 29.2689 177.215 29.046 177.15 28.8362M171.35 28.8362C171.633 27.9176 172.488 27.25 173.5 27.25H175C176.012 27.25 176.867 27.9176 177.15 28.8362M171.35 28.8362C170.974 28.8586 170.599 28.8853 170.226 28.9163C169.095 29.0102 168.25 29.9732 168.25 31.1082V33.25M168.25 33.25H164.875C164.254 33.25 163.75 33.7537 163.75 34.375V45.625C163.75 46.2463 164.254 46.75 164.875 46.75H174.625C175.246 46.75 175.75 46.2463 175.75 45.625V34.375C175.75 33.7537 175.246 33.25 174.625 33.25H168.25ZM166.75 37H166.758V37.0075H166.75V37ZM166.75 40H166.758V40.0075H166.75V40ZM166.75 43H166.758V43.0075H166.75V43Z" stroke="#111010" stroke-width="1.5" stroke-linecap="round" stroke-linejoin="round"/>
<path d="M163.25 22H182.75M164.75 4V22M175.25 4V22M181.25 8.5V22M167.75 7.75H168.5M167.75 10.75H168.5M167.75 13.75H168.5M171.5 7.75H172.25M171.5 10.75H172.25M171.5 13.75H172.25M167.75 22V18.625C167.75 18.0037 168.254 17.5 168.875 17.5H171.125C171.746 17.5 172.25 18.0037 172.25 18.625V22M164 4H176M175.25 8.5H182M178.25 12.25H178.258V12.2575H178.25V12.25ZM178.25 15.25H178.258V15.2575H178.25V15.25ZM178.25 18.25H178.258V18.2575H178.25V18.25Z" stroke="#111010" stroke-width="1.5" stroke-linecap="round" stroke-linejoin="round"/>
<path d="M207.25 15.1499V19.4C207.25 20.4944 206.463 21.4359 205.378 21.58C203.291 21.857 201.162 22 199 22C196.838 22 194.709 21.857 192.622 21.58C191.537 21.4359 190.75 20.4944 190.75 19.4V15.1499M207.25 15.1499C207.722 14.7476 208 14.1389 208 13.4889V9.70569C208 8.62475 207.232 7.69082 206.163 7.53086C205.038 7.36247 203.9 7.23315 202.75 7.14432M207.25 15.1499C207.056 15.315 206.83 15.4453 206.577 15.5294C204.195 16.3212 201.648 16.75 199 16.75C196.352 16.75 193.805 16.3212 191.423 15.5294C191.17 15.4452 190.944 15.3149 190.75 15.1499M190.75 15.1499C190.278 14.7476 190 14.1389 190 13.4889V9.70569C190 8.62475 190.768 7.69082 191.837 7.53086C192.962 7.36247 194.1 7.23315 195.25 7.14432M202.75 7.14432V6.25C202.75 5.00736 201.743 4 200.5 4H197.5C196.257 4 195.25 5.00736 195.25 6.25V7.14432M202.75 7.14432C201.513 7.0487 200.262 7 199 7C197.738 7 196.487 7.0487 195.25 7.14432M199 13.75H199.007V13.7575H199V13.75Z" stroke="#111010" stroke-width="1.5" stroke-linecap="round" stroke-linejoin="round"/>
<path d="M200.5 45.9999V38.4999C200.5 38.0856 200.836 37.7499 201.25 37.7499H204.25C204.664 37.7499 205 38.0856 205 38.4999V45.9999M200.5 45.9999H189.361M200.5 45.9999H205M205 45.9999H208.639M207.25 45.9999V34.3486M190.75 45.9999V34.3489M190.75 34.3489C191.897 35.012 193.39 34.8528 194.371 33.8713C194.416 33.8266 194.459 33.781 194.5 33.7343C195.05 34.3571 195.854 34.7499 196.75 34.7499C197.646 34.7499 198.45 34.357 199 33.7342C199.55 34.357 200.354 34.7499 201.25 34.7499C202.146 34.7499 202.95 34.3571 203.5 33.7344C203.541 33.781 203.584 33.8266 203.628 33.8712C204.61 34.8528 206.103 35.012 207.25 34.3486M190.75 34.3489C190.528 34.2205 190.319 34.0613 190.129 33.8713C188.957 32.6997 188.957 30.8002 190.129 29.6286L191.318 28.4393C191.599 28.158 191.981 28 192.379 28H205.621C206.019 28 206.401 28.158 206.682 28.4393L207.871 29.6285C209.043 30.8001 209.043 32.6996 207.871 33.8712C207.681 34.0611 207.472 34.2203 207.25 34.3486M193.75 42.9999H197.5C197.914 42.9999 198.25 42.6641 198.25 42.2499V38.4999C198.25 38.0856 197.914 37.7499 197.5 37.7499H193.75C193.336 37.7499 193 38.0856 193 38.4999V42.2499C193 42.6641 193.336 42.9999 193.75 42.9999Z" stroke="#111010" stroke-width="1.5" stroke-linecap="round" stroke-linejoin="round"/>
</svg>
